<?xml version="1.0" encoding="UTF-8"?>
<!-- Generator: visioncortex VTracer 0.6.3 -->
<svg version="1.1" xmlns="http://www.w3.org/2000/svg" width="1280" height="1280">
  <path d="M0 0 C422.4 0 844.8 0 1280 0 C1280 422.4 1280 844.8 1280 1280 C857.6 1280 435.2 1280 0 1280 C0 857.6 0 435.2 0 0 Z " fill="#000102" transform="translate(0,0)"/>
  <path d="M0 0 C10.66 -0.05 21.31 -0.08 31.97 -0.1 C36.92 -0.11 41.87 -0.13 46.81 -0.15 C51.59 -0.17 56.36 -0.18 61.13 -0.19 C62.96 -0.19 64.78 -0.2 66.6 -0.21 C69.15 -0.23 71.7 -0.23 74.25 -0.23 C75.01 -0.23 75.76 -0.24 76.55 -0.25 C81.77 -0.23 81.77 -0.23 84 2 C84.21 4.92 84.29 7.75 84.29 10.67 C84.29 11.57 84.3 12.47 84.31 13.4 C84.32 15.36 84.33 17.33 84.34 19.29 C84.34 22.41 84.36 25.54 84.39 28.67 C84.44 35.34 84.47 42.01 84.5 48.69 C84.54 56.35 84.58 64.02 84.64 71.69 C84.66 74.73 84.66 77.77 84.67 80.81 C84.89 120.78 91.47 160.02 107 197 C107.3 197.75 107.61 198.49 107.92 199.26 C117.33 222.33 130.52 243.54 146 263 C146.51 263.65 147.03 264.3 147.55 264.97 C158.6 278.94 170.52 292.03 184.55 303.05 C186.99 304.99 189.27 307.03 191.56 309.12 C196.1 313.19 200.94 316.61 206 320 C207.1 320.76 208.2 321.51 209.3 322.27 C224.38 332.6 240.11 341.46 256.76 348.99 C258.89 349.95 261 350.92 263.12 351.9 C280.15 359.68 297.61 364.32 315.88 368.32 C317.56 368.68 319.23 369.06 320.91 369.45 C344.43 374.89 368.35 374.45 392.33 374.4 C397.4 374.4 402.46 374.4 407.53 374.41 C416.02 374.41 424.5 374.41 432.99 374.39 C442.76 374.37 452.53 374.38 462.3 374.4 C470.75 374.41 479.2 374.41 487.65 374.4 C492.67 374.4 497.69 374.4 502.71 374.41 C507.42 374.42 512.14 374.41 516.85 374.39 C518.57 374.39 520.28 374.39 522 374.4 C561.45 374.54 597.77 358.31 626 331 C629.24 327.49 632.17 323.84 635 320 C635.6 319.19 636.2 318.38 636.82 317.55 C638.61 315.07 640.31 312.55 642 310 C642.65 309.03 643.3 308.05 643.96 307.05 C665.12 274.08 670.5 235.08 662.41 197.07 C654.28 161.24 630.74 126.39 599.53 106.62 C586.44 98.77 571.91 92.35 557 89 C555.86 88.74 554.72 88.49 553.54 88.22 C542.87 86.02 532.56 85.45 521.68 85.32 C519.69 85.28 517.69 85.25 515.69 85.22 C483.58 84.73 451.46 84.89 419.35 84.93 C410.02 84.94 400.69 84.94 391.35 84.95 C372.24 84.96 353.12 84.98 334 85 C334.62 87.56 335.25 90.13 335.88 92.69 C336.05 93.41 336.22 94.13 336.4 94.88 C339.7 108.24 346.84 113.56 358 121 C366.63 124.35 375.25 124.43 384.39 124.4 C385.91 124.41 387.43 124.41 388.95 124.42 C392.21 124.44 395.46 124.44 398.72 124.44 C403.88 124.44 409.05 124.46 414.21 124.48 C424.25 124.52 434.29 124.54 444.33 124.56 C457.09 124.58 469.85 124.61 482.61 124.66 C487.73 124.68 492.84 124.69 497.96 124.7 C501.16 124.7 504.37 124.71 507.57 124.72 C509.04 124.73 510.51 124.73 511.97 124.72 C526.09 124.7 540.22 125.63 553.81 129.69 C554.7 129.95 555.59 130.21 556.5 130.48 C563.67 132.69 569.85 135.67 576 140 C576.96 140.66 577.93 141.33 578.92 142.01 C602.76 158.91 619.91 183.96 625 213 C628.91 239.5 623.73 266.93 608 289 C604.21 293.86 600.15 298.45 596 303 C594.96 304.16 594.96 304.16 593.91 305.35 C581.15 318.94 563 327.92 545 332 C544.37 332.17 543.73 332.33 543.08 332.51 C534.7 334.5 526.28 334.28 517.72 334.26 C515.98 334.26 514.25 334.27 512.51 334.27 C507.82 334.28 503.13 334.28 498.43 334.27 C493.5 334.26 488.57 334.27 483.63 334.27 C475.34 334.28 467.05 334.27 458.76 334.26 C449.21 334.25 439.67 334.25 430.13 334.26 C421.9 334.27 413.67 334.27 405.44 334.27 C400.55 334.27 395.65 334.27 390.75 334.27 C386.13 334.28 381.52 334.27 376.9 334.26 C375.22 334.26 373.54 334.26 371.86 334.27 C355.99 334.3 340.55 332.81 325 329.56 C323.97 329.36 322.95 329.15 321.89 328.94 C313.34 327.2 305.12 324.9 296.99 321.76 C294.88 320.95 292.76 320.2 290.62 319.46 C280.63 315.92 271.15 311.91 261.78 306.94 C260.17 306.09 258.53 305.27 256.89 304.46 C249.48 300.71 242.68 296.22 235.81 291.56 C234.9 290.94 233.98 290.32 233.04 289.68 C226.8 285.38 220.85 280.81 215 276 C214.39 275.5 213.78 275 213.15 274.49 C199.18 262.99 186.69 250.61 176 236 C175.34 235.17 174.67 234.34 173.99 233.49 C154.23 208.72 141.21 179.42 133 149 C132.75 148.08 132.49 147.16 132.23 146.21 C126.23 124.1 124.53 101.99 124.67 79.16 C124.67 76.89 124.68 74.61 124.68 72.34 C124.68 67.64 124.7 62.94 124.72 58.24 C124.75 52.2 124.76 46.16 124.76 40.13 C124.77 35.46 124.78 30.8 124.79 26.14 C124.79 23.91 124.8 21.68 124.8 19.45 C124.81 16.36 124.82 13.27 124.84 10.19 C124.84 9.27 124.84 8.34 124.84 7.39 C124.89 1.11 124.89 1.11 126 0 C128.51 -0.11 130.99 -0.16 133.5 -0.16 C134.68 -0.17 134.68 -0.17 135.88 -0.18 C138.49 -0.19 141.1 -0.2 143.71 -0.2 C145.52 -0.21 147.33 -0.21 149.13 -0.22 C152.93 -0.23 156.72 -0.24 160.52 -0.24 C165.39 -0.25 170.25 -0.27 175.12 -0.3 C178.86 -0.32 182.59 -0.32 186.33 -0.32 C188.12 -0.33 189.92 -0.33 191.71 -0.35 C194.22 -0.36 196.73 -0.36 199.24 -0.36 C199.98 -0.37 200.73 -0.37 201.5 -0.38 C206.54 -0.34 206.54 -0.34 208.69 1.27 C210.3 3.4 210.37 4.47 210.37 7.12 C210.38 7.96 210.39 8.8 210.39 9.67 C210.38 10.58 210.38 11.5 210.37 12.45 C210.37 13.9 210.37 13.9 210.38 15.39 C210.39 17.5 210.39 19.61 210.38 21.72 C210.37 25.08 210.38 28.44 210.4 31.81 C210.44 41.37 210.44 50.94 210.44 60.5 C210.44 66.35 210.46 72.2 210.49 78.05 C210.5 81.33 210.48 84.61 210.47 87.88 C210.52 114.33 215.79 139.04 228.95 162.08 C230.01 164.02 230.97 166 231.92 168 C234.05 172.32 236.76 176.06 239.69 179.88 C240.22 180.57 240.75 181.27 241.29 181.99 C245.59 187.59 250.11 192.91 255 198 C255.81 198.85 256.62 199.7 257.46 200.58 C262.65 205.9 267.99 210.63 274 215 C275.01 215.77 275.01 215.77 276.05 216.56 C301.22 235.13 333.69 249.04 365.38 249.15 C366.42 249.15 366.42 249.15 367.49 249.16 C369.8 249.17 372.11 249.17 374.42 249.18 C376.08 249.18 377.75 249.19 379.42 249.2 C384.86 249.22 390.31 249.23 395.76 249.24 C397.64 249.24 399.52 249.25 401.4 249.25 C410.22 249.27 419.04 249.28 427.87 249.29 C438.04 249.3 448.22 249.33 458.4 249.37 C466.27 249.4 474.15 249.41 482.03 249.42 C486.73 249.42 491.43 249.43 496.13 249.45 C500.54 249.48 504.96 249.48 509.38 249.47 C511 249.47 512.62 249.48 514.24 249.49 C516.45 249.51 518.66 249.5 520.88 249.49 C522.74 249.49 522.74 249.49 524.63 249.49 C530.7 248.6 535.14 244.61 539 240 C541.3 234.56 541.57 229.64 540 224 C537.35 218.22 534.84 213.85 529 211 C525.08 210 521.38 209.87 517.34 209.86 C516.68 209.85 516.02 209.85 515.35 209.84 C513.15 209.83 510.96 209.83 508.77 209.83 C507.19 209.82 505.62 209.81 504.04 209.81 C500.65 209.79 497.26 209.78 493.87 209.77 C488.49 209.75 483.12 209.73 477.75 209.71 C462.47 209.63 447.2 209.57 431.92 209.52 C423.48 209.49 415.04 209.46 406.6 209.42 C401.27 209.39 395.94 209.37 390.61 209.36 C387.28 209.35 383.95 209.33 380.62 209.31 C379.08 209.31 377.55 209.3 376.02 209.3 C339.24 209.28 308.62 194 282.5 168.88 C277.76 163.97 273.85 158.62 270 153 C269.48 152.31 268.96 151.62 268.42 150.9 C259.6 138.82 255.38 123.38 252 109 C251.82 108.32 251.65 107.64 251.47 106.95 C249.19 96.7 249.73 86.17 249.77 75.74 C249.77 73.59 249.77 71.43 249.77 69.27 C249.77 64.78 249.78 60.28 249.79 55.78 C249.81 50.01 249.82 44.23 249.81 38.45 C249.81 34.01 249.82 29.57 249.83 25.13 C249.83 23 249.83 20.87 249.83 18.73 C249.84 15.77 249.84 12.81 249.85 9.84 C249.85 8.96 249.85 8.07 249.85 7.16 C249.89 1.11 249.89 1.11 251 0 C252.51 -0.1 254.02 -0.13 255.53 -0.13 C256.51 -0.13 257.5 -0.14 258.51 -0.14 C259.6 -0.14 260.7 -0.14 261.83 -0.13 C262.98 -0.14 264.13 -0.14 265.32 -0.14 C268.53 -0.15 271.75 -0.15 274.96 -0.15 C278.42 -0.15 281.89 -0.15 285.35 -0.16 C292.14 -0.16 298.93 -0.17 305.72 -0.17 C311.25 -0.17 316.78 -0.17 322.3 -0.17 C337.98 -0.18 353.66 -0.19 369.34 -0.19 C370.61 -0.19 370.61 -0.19 371.91 -0.19 C372.75 -0.19 373.6 -0.19 374.47 -0.19 C388.17 -0.18 401.86 -0.19 415.56 -0.21 C429.63 -0.22 443.7 -0.23 457.77 -0.23 C465.66 -0.23 473.56 -0.23 481.45 -0.24 C488.18 -0.25 494.92 -0.25 501.65 -0.25 C505.08 -0.24 508.51 -0.24 511.93 -0.25 C525.77 -0.28 539.31 -0.15 553 2 C554.72 2.27 554.72 2.27 556.48 2.54 C601.29 9.69 639.25 28.37 673.52 57.74 C674.8 58.83 676.08 59.9 677.36 60.98 C681.22 64.25 684.63 67.66 687.89 71.52 C689.58 73.5 691.28 75.45 693.01 77.39 C702.62 88.21 710.76 99.44 718 112 C718.63 113.07 719.25 114.14 719.9 115.24 C727.55 128.35 734.05 141.65 739 156 C739.39 157.1 739.39 157.1 739.78 158.22 C744.07 170.62 746.94 183.05 749 196 C749.12 196.71 749.24 197.42 749.36 198.15 C756.91 244.67 747.36 294.8 725 336 C724.39 337.17 723.78 338.34 723.16 339.54 C719.78 345.97 716.21 352.09 712 358 C711.61 358.55 711.22 359.11 710.81 359.68 C704.97 367.91 698.89 375.61 692 383 C690.89 384.29 689.79 385.58 688.69 386.88 C685.51 390.51 682.19 393.99 678.81 397.44 C678.3 397.97 677.79 398.5 677.26 399.05 C674.54 401.8 672.72 403.15 669 404 C668.7 404.59 668.41 405.19 668.1 405.8 C666.53 408.94 664.23 410.26 661.38 412.25 C660.37 412.96 659.37 413.66 658.34 414.39 C657.57 414.92 656.79 415.45 656 416 C657.51 419.79 659.68 421.59 662.88 424.06 C690.69 446.2 711.93 473.41 728 505 C728.88 506.72 728.88 506.72 729.78 508.48 C735.22 519.6 739.23 531.22 743 543 C743.22 543.7 743.45 544.39 743.68 545.11 C753.14 575.7 753.75 611.24 748.4 642.64 C748.04 644.76 747.74 646.88 747.45 649.01 C742.78 679.44 728.37 711.34 710 736 C709.42 736.83 708.85 737.66 708.25 738.52 C702.86 746.19 696.78 753.19 690.57 760.21 C688.97 762.04 687.4 763.89 685.83 765.75 C683.8 768.12 681.76 770.29 679.38 772.31 C678.7 772.89 678.02 773.46 677.32 774.06 C676.55 774.7 675.79 775.34 675 776 C674.1 776.77 673.2 777.55 672.28 778.35 C666.11 783.6 659.79 788.38 653.08 792.91 C650.37 794.75 647.72 796.64 645.06 798.56 C601.65 828.77 551.06 835.16 499.63 835.15 C496.92 835.15 494.21 835.15 491.5 835.16 C484.96 835.16 478.42 835.17 471.87 835.17 C466.56 835.17 461.24 835.17 455.93 835.17 C440.83 835.18 425.73 835.19 410.64 835.19 C409.42 835.19 409.42 835.19 408.18 835.19 C406.97 835.19 406.97 835.19 405.73 835.19 C392.53 835.18 379.33 835.19 366.13 835.21 C352.55 835.22 338.98 835.23 325.4 835.23 C317.79 835.23 310.17 835.23 302.56 835.24 C296.09 835.25 289.63 835.25 283.16 835.25 C279.86 835.24 276.56 835.24 273.26 835.25 C269.69 835.26 266.12 835.25 262.55 835.25 C261.5 835.25 260.45 835.26 259.37 835.26 C257.94 835.26 257.94 835.26 256.49 835.25 C255.66 835.25 254.84 835.25 253.99 835.25 C252 835 252 835 250 833 C249.79 830.06 249.71 827.21 249.71 824.26 C249.7 823.36 249.7 822.45 249.69 821.52 C249.67 818.5 249.67 815.49 249.66 812.47 C249.66 810.37 249.65 808.26 249.64 806.16 C249.63 801.73 249.63 797.31 249.63 792.88 C249.63 787.25 249.6 781.63 249.57 776.01 C249.55 771.65 249.54 767.29 249.54 762.93 C249.54 760.87 249.53 758.8 249.52 756.73 C249.32 728.32 256.48 702.61 272.19 678.81 C272.79 677.9 272.79 677.9 273.41 676.96 C275.95 673.24 278.72 670.11 282 667 C282.61 666.39 283.22 665.78 283.84 665.16 C285 664 286.15 662.85 287.3 661.7 C288.75 660.25 290.19 658.78 291.62 657.31 C295.98 653.07 300.89 649.55 305.81 646 C306.39 645.57 306.97 645.15 307.56 644.71 C315.57 638.95 324.18 635.67 333.49 632.54 C335.41 631.88 337.32 631.21 339.23 630.54 C345.76 628.29 352.1 626.64 358.97 625.88 C359.7 625.79 360.44 625.71 361.2 625.62 C368.94 624.81 376.65 624.71 384.43 624.73 C385.99 624.72 387.55 624.72 389.11 624.71 C392.43 624.7 395.74 624.7 399.06 624.7 C404.31 624.69 409.56 624.67 414.81 624.65 C427.83 624.61 440.85 624.57 453.87 624.55 C464.03 624.54 474.19 624.51 484.35 624.47 C489.57 624.45 494.78 624.44 500 624.44 C503.24 624.44 506.48 624.43 509.71 624.41 C511.21 624.4 512.71 624.4 514.21 624.41 C516.26 624.41 518.31 624.4 520.36 624.39 C522.07 624.38 522.07 624.38 523.83 624.38 C527.43 623.95 529.84 622.72 533 621 C533.66 621 534.32 621 535 621 C535.27 620.44 535.54 619.89 535.81 619.31 C537 617 537 617 538.56 614.81 C540.84 610.36 541.59 605.83 540.56 600.89 C538.98 596.27 536.63 591.33 533 588 C527.33 585.49 521.6 585.56 515.5 585.39 C513.79 585.33 513.79 585.33 512.04 585.27 C499.02 584.88 486 584.82 472.97 584.8 C470.9 584.8 468.83 584.79 466.76 584.79 C460.22 584.77 453.68 584.77 447.15 584.76 C439.72 584.76 432.28 584.74 424.85 584.71 C419.02 584.69 413.19 584.68 407.36 584.68 C403.92 584.68 400.47 584.67 397.03 584.65 C373.77 584.55 350.47 585.47 328 592 C327.28 592.2 326.56 592.41 325.82 592.62 C314.72 595.84 304.79 600.33 294.75 606.02 C293.31 606.82 291.86 607.59 290.39 608.34 C284.45 611.39 279.32 615.45 274.09 619.57 C271.58 621.55 269.03 623.44 266.44 625.31 C263.42 627.56 261.26 629.97 259 633 C257.34 634.68 255.67 636.34 254 638 C231.25 661.51 216.76 691.69 212 724 C211.83 725.02 211.66 726.03 211.48 727.08 C210.9 731.79 210.84 736.39 210.83 741.13 C210.82 742.12 210.81 743.11 210.81 744.13 C210.79 746.28 210.78 748.42 210.77 750.57 C210.75 753.96 210.73 757.35 210.71 760.74 C210.63 770.38 210.57 780.02 210.52 789.65 C210.49 795.56 210.45 801.46 210.4 807.36 C210.39 809.61 210.37 811.86 210.37 814.11 C210.35 817.25 210.33 820.38 210.3 823.52 C210.3 824.46 210.3 825.39 210.3 826.36 C210.29 827.63 210.29 827.63 210.27 828.93 C210.27 829.68 210.26 830.42 210.26 831.18 C210 833 210 833 208 835 C205.42 835.2 202.95 835.27 200.37 835.26 C199.58 835.26 198.79 835.27 197.98 835.27 C195.37 835.28 192.77 835.27 190.16 835.27 C188.35 835.27 186.54 835.27 184.73 835.27 C180.94 835.27 177.15 835.27 173.35 835.26 C168.48 835.25 163.61 835.26 158.74 835.27 C155.01 835.28 151.27 835.27 147.54 835.27 C145.74 835.27 143.95 835.27 142.15 835.27 C139.64 835.28 137.14 835.27 134.63 835.26 C133.88 835.26 133.14 835.27 132.37 835.27 C127.23 835.23 127.23 835.23 125 833 C124.8 829.93 124.72 826.95 124.73 823.88 C124.72 822.94 124.72 821.99 124.71 821.01 C124.7 817.86 124.7 814.71 124.7 811.55 C124.7 809.35 124.69 807.15 124.69 804.94 C124.68 800.3 124.68 795.66 124.68 791.02 C124.69 785.13 124.67 779.25 124.65 773.37 C124.64 768.81 124.63 764.24 124.64 759.67 C124.64 757.51 124.63 755.34 124.62 753.18 C124.45 711.05 134.47 670.35 154 633 C154.53 631.99 155.05 630.98 155.6 629.93 C162.25 617.47 170.02 605.42 179.41 594.84 C180.57 593.5 181.69 592.12 182.77 590.73 C187.66 584.49 192.96 578.85 198.56 573.25 C199.27 572.54 199.98 571.83 200.71 571.1 C207.4 564.48 214.42 558.32 221.81 552.5 C222.41 552.03 223.01 551.56 223.63 551.07 C228.07 547.62 232.66 544.53 237.46 541.6 C239.88 540.08 242.1 538.42 244.38 536.69 C251.79 531.4 260.33 527.93 268.57 524.14 C270.76 523.11 272.91 522.03 275.06 520.91 C279.38 518.73 283.86 517.13 288.44 515.56 C289.31 515.26 290.19 514.96 291.09 514.65 C321.31 504.36 351.45 499.84 383.35 499.85 C384.9 499.85 386.45 499.85 388 499.84 C392.16 499.84 396.32 499.83 400.47 499.83 C403.08 499.83 405.69 499.83 408.3 499.83 C417.44 499.82 426.57 499.81 435.71 499.81 C444.17 499.82 452.64 499.8 461.1 499.79 C468.42 499.78 475.73 499.77 483.05 499.77 C487.39 499.77 491.74 499.77 496.09 499.76 C500.18 499.75 504.27 499.75 508.36 499.76 C509.85 499.76 511.34 499.75 512.82 499.75 C520.61 499.72 528.28 500 536.02 500.88 C536.7 500.96 537.38 501.04 538.08 501.11 C554.64 503.19 571.11 510.45 584 521 C585.18 521.8 586.37 522.59 587.56 523.38 C590.9 525.76 593.44 528.52 596.06 531.66 C597.45 533.34 598.88 534.97 600.35 536.59 C618.83 557.44 627.53 585.04 626.16 612.67 C624.42 637.44 613.74 659.02 597 677 C596.32 677.76 595.64 678.52 594.95 679.3 C582.57 692.56 565.88 701.15 548.75 706.44 C547.56 706.81 547.56 706.81 546.35 707.19 C534.87 710.51 522.89 710.15 511.03 710.14 C509.46 710.14 507.89 710.15 506.32 710.15 C502.97 710.16 499.61 710.17 496.25 710.17 C490.93 710.17 485.62 710.19 480.3 710.21 C478.47 710.22 476.64 710.22 474.81 710.23 C473.9 710.23 472.99 710.24 472.04 710.24 C459.68 710.28 447.32 710.31 434.96 710.33 C426.59 710.33 418.23 710.36 409.86 710.4 C405.45 710.41 401.03 710.43 396.61 710.42 C392.46 710.42 388.31 710.43 384.16 710.46 C382.64 710.47 381.12 710.47 379.61 710.46 C366.18 710.4 356.05 712.77 346 722 C338.9 729.3 335.69 738.99 335 749 C336.66 750.66 338.65 750.13 340.87 750.14 C341.57 750.14 342.27 750.14 343 750.13 C343.74 750.14 344.48 750.14 345.24 750.14 C347.74 750.15 350.24 750.15 352.75 750.15 C354.53 750.15 356.32 750.15 358.11 750.16 C362.98 750.16 367.86 750.17 372.73 750.17 C375.79 750.17 378.84 750.17 381.89 750.17 C392.56 750.18 403.24 750.19 413.91 750.19 C423.81 750.18 433.72 750.2 443.62 750.21 C452.15 750.22 460.67 750.23 469.2 750.23 C474.28 750.23 479.36 750.23 484.44 750.24 C513.79 750.46 513.79 750.46 543 748 C543.77 747.9 544.55 747.79 545.34 747.68 C570.09 744.24 592.72 733.96 612 718 C613.52 716.82 613.52 716.82 615.07 715.61 C622.06 710.04 627.54 704.04 633 697 C634.01 695.87 635.03 694.74 636.06 693.62 C639.98 689.08 642.93 683.89 645.96 678.74 C646.97 677.05 648.02 675.38 649.08 673.71 C658.4 658.51 662.02 641.41 665 624 C665.19 622.89 665.39 621.78 665.59 620.63 C667.19 606.46 666.62 591.92 663.45 578.01 C662.99 575.94 662.57 573.86 662.16 571.78 C654.51 534.75 630.01 502.26 598.82 481.6 C584.11 472.16 567.48 466.53 550.5 462.69 C549.8 462.53 549.09 462.37 548.36 462.2 C537.91 459.98 527.5 459.85 516.85 459.87 C515.34 459.87 513.83 459.87 512.33 459.87 C508.25 459.86 504.18 459.86 500.11 459.87 C495.81 459.87 491.52 459.87 487.22 459.86 C479.99 459.86 472.77 459.86 465.54 459.87 C457.25 459.88 448.96 459.87 440.68 459.87 C433.51 459.86 426.35 459.86 419.18 459.87 C414.93 459.87 410.67 459.87 406.41 459.86 C391.25 459.85 376.1 459.84 360.95 460.43 C359.99 460.47 359.03 460.5 358.05 460.54 C314.01 462.52 269.06 475.66 231 498 C230.41 498.34 229.82 498.69 229.22 499.04 C222.83 502.8 216.65 506.83 210.62 511.14 C208.64 512.55 206.64 513.93 204.63 515.3 C204.05 515.69 203.47 516.09 202.87 516.5 C201.21 517.63 199.55 518.76 197.88 519.89 C195.06 521.84 195.06 521.84 193.13 523.88 C190.87 526.13 188.49 528.06 185.98 530.04 C180.25 534.69 174.98 539.72 169.78 544.96 C168.31 546.44 166.83 547.91 165.34 549.38 C159.45 555.27 154.07 561.39 149 568 C148.15 569.06 147.3 570.13 146.45 571.19 C128.03 594.71 113.15 620.85 103 649 C102.54 650.25 102.54 650.25 102.08 651.53 C89.63 685.96 84.98 720.91 84.74 757.33 C84.72 760.49 84.69 763.65 84.66 766.82 C84.59 774.64 84.53 782.47 84.47 790.3 C84.42 796.96 84.37 803.62 84.31 810.28 C84.28 813.4 84.26 816.52 84.24 819.63 C84.22 821.53 84.21 823.42 84.19 825.31 C84.19 826.18 84.18 827.05 84.18 827.95 C84.11 833.89 84.11 833.89 83 835 C80.49 835.11 78 835.15 75.48 835.15 C74.7 835.15 73.91 835.15 73.1 835.16 C70.48 835.16 67.87 835.17 65.25 835.17 C63.44 835.17 61.63 835.17 59.82 835.18 C56.03 835.18 52.23 835.19 48.43 835.19 C43.55 835.19 38.67 835.2 33.8 835.22 C30.06 835.23 26.32 835.23 22.58 835.23 C20.78 835.23 18.98 835.23 17.18 835.24 C14.67 835.25 12.16 835.25 9.65 835.24 C8.9 835.25 8.15 835.25 7.38 835.26 C2.23 835.23 2.23 835.23 0 833 C-0.25 831.18 -0.25 831.18 -0.26 828.92 C-0.27 827.64 -0.27 827.64 -0.28 826.34 C-0.28 825.4 -0.28 824.46 -0.27 823.49 C-0.28 822.5 -0.28 821.51 -0.29 820.49 C-0.3 817.19 -0.3 813.9 -0.3 810.6 C-0.3 808.29 -0.31 805.99 -0.31 803.68 C-0.32 798.82 -0.32 793.96 -0.32 789.1 C-0.31 784.16 -0.32 779.23 -0.34 774.29 C-0.53 722.71 -0.53 722.71 2.63 701.47 C3.1 698.32 3.48 695.17 3.86 692.01 C12.25 628.11 42.39 562.93 84 514 C84.92 512.9 85.84 511.79 86.75 510.69 C91.08 505.5 95.4 500.39 100.29 495.72 C102.02 493.98 103.59 492.18 105.17 490.31 C109.03 485.88 113.2 481.87 117.5 477.88 C118.22 477.2 118.94 476.52 119.68 475.82 C137.2 459.45 156.25 444.43 176.76 431.98 C179.81 430.12 182.81 428.19 185.81 426.25 C197.16 419 197.16 419 201 419 C200.44 416.51 200.44 416.51 199 414 C198.17 413.73 197.35 413.46 196.5 413.18 C191.8 411.6 187.85 409.14 183.62 406.56 C182.74 406.03 181.86 405.49 180.95 404.94 C167.04 396.43 153.95 386.89 141 377 C140.06 376.28 139.11 375.57 138.14 374.83 C132.53 370.53 132.53 370.53 130.27 368.25 C128.42 366.42 126.56 364.76 124.59 363.08 C118.93 358.16 113.66 352.84 108.36 347.54 C106.57 345.76 104.79 343.99 103 342.22 C96.2 335.46 89.94 328.54 84 321 C83.07 319.88 82.13 318.76 81.18 317.65 C76.09 311.65 71.38 305.54 67 299 C66.5 298.26 66 297.53 65.48 296.77 C61.54 290.92 57.76 284.97 54 279 C53.37 278.01 52.74 277.03 52.09 276.01 C43.9 262.97 36.86 249.44 30.94 235.24 C29.91 232.79 28.86 230.35 27.81 227.91 C16.17 200.55 8.39 171.17 3.62 141.81 C3.48 140.93 3.34 140.05 3.19 139.15 C0.36 120.21 -0.28 101.34 -0.2 82.23 C-0.19 79.84 -0.19 77.45 -0.19 75.06 C-0.18 68.85 -0.16 62.64 -0.14 56.42 C-0.12 50.06 -0.11 43.69 -0.1 37.32 C-0.08 24.88 -0.04 12.44 0 0 Z " fill="#FCFCFC" transform="translate(377,226)"/>
  <path d="M0 0 C10.66 -0.05 21.31 -0.08 31.97 -0.1 C36.92 -0.11 41.87 -0.13 46.81 -0.15 C51.59 -0.17 56.36 -0.18 61.13 -0.19 C62.96 -0.19 64.78 -0.2 66.6 -0.21 C69.15 -0.23 71.7 -0.23 74.25 -0.23 C75.01 -0.23 75.76 -0.24 76.55 -0.25 C81.77 -0.23 81.77 -0.23 84 2 C84.25 4.44 84.25 4.44 84.25 7.59 C84.26 9.39 84.26 9.39 84.26 11.23 C84.26 12.58 84.25 13.92 84.25 15.27 C84.25 16.69 84.25 18.12 84.26 19.54 C84.26 23.49 84.26 27.43 84.25 31.38 C84.24 35.66 84.25 39.94 84.25 44.22 C84.26 51.73 84.26 59.24 84.25 66.76 C84.24 77.93 84.24 89.1 84.25 100.27 C84.25 119.06 84.25 137.85 84.24 156.63 C84.23 175.25 84.23 193.86 84.23 212.47 C84.23 213.63 84.23 214.78 84.23 215.97 C84.23 220.67 84.23 225.36 84.23 230.05 C84.23 274.1 84.22 318.15 84.2 362.19 C84.19 401.37 84.18 440.54 84.19 479.71 C84.19 482.23 84.19 484.74 84.19 487.26 C84.19 488.5 84.19 489.74 84.19 491.02 C84.19 497.28 84.19 503.54 84.19 509.8 C84.19 511.04 84.19 512.27 84.19 513.54 C84.19 546.23 84.18 578.92 84.18 611.61 C84.18 612.78 84.17 613.94 84.17 615.14 C84.17 619.81 84.17 624.48 84.17 629.16 C84.17 645.45 84.17 661.74 84.17 678.03 C84.17 699.02 84.16 720 84.15 740.99 C84.15 752.1 84.15 763.21 84.15 774.32 C84.15 781.73 84.14 789.14 84.14 796.55 C84.14 800.78 84.13 805.01 84.14 809.24 C84.14 813.08 84.14 816.91 84.13 820.75 C84.13 822.14 84.13 823.53 84.13 824.92 C84.13 826.79 84.13 828.66 84.13 830.53 C84.13 832.09 84.13 832.09 84.13 833.68 C84 836 84 836 83 837 C80.44 837.1 77.92 837.13 75.36 837.11 C74.16 837.11 74.16 837.11 72.94 837.11 C70.28 837.11 67.62 837.11 64.96 837.1 C63.13 837.1 61.29 837.09 59.45 837.09 C54.61 837.09 49.76 837.08 44.92 837.07 C39.98 837.06 35.04 837.05 30.1 837.05 C20.4 837.04 10.7 837.02 1 837 C1 836.34 1 835.68 1 835 C0.34 835 -0.32 835 -1 835 C-1.02 755.61 -1.03 676.23 -1.04 596.84 C-1.04 595.66 -1.04 594.49 -1.04 593.28 C-1.05 567.77 -1.05 542.26 -1.05 516.74 C-1.05 504.23 -1.05 491.72 -1.05 479.21 C-1.06 477.97 -1.06 476.72 -1.06 475.44 C-1.06 435.05 -1.07 394.67 -1.08 354.28 C-1.09 312.79 -1.09 271.3 -1.09 229.82 C-1.09 223.96 -1.09 218.11 -1.09 212.26 C-1.09 211.11 -1.1 209.95 -1.1 208.77 C-1.1 190.18 -1.1 171.6 -1.11 153.02 C-1.11 134.36 -1.11 115.71 -1.11 97.05 C-1.11 85.95 -1.11 74.85 -1.12 63.75 C-1.12 56.35 -1.12 48.95 -1.12 41.54 C-1.12 37.32 -1.12 33.09 -1.12 28.87 C-1.13 25.03 -1.13 21.19 -1.12 17.36 C-1.12 15.97 -1.12 14.59 -1.13 13.2 C-1.13 11.33 -1.13 9.46 -1.12 7.59 C-1.12 6.55 -1.12 5.51 -1.12 4.44 C-1 2 -1 2 0 0 Z " fill="#FDFDFD" transform="translate(256,225)"/>
  <path d="M0 0 C1.81 -0.03 3.62 -0.05 5.44 -0.06 C6.45 -0.07 7.46 -0.09 8.5 -0.1 C11 0 11 0 12 1 C13.47 1.12 14.95 1.18 16.43 1.21 C17.84 1.24 17.84 1.24 19.28 1.27 C20.3 1.28 21.33 1.3 22.38 1.32 C23.42 1.34 24.46 1.36 25.54 1.38 C28.88 1.44 32.22 1.5 35.56 1.56 C37.82 1.61 40.08 1.65 42.34 1.69 C47.89 1.8 53.45 1.9 59 2 C59 2.33 59 2.66 59 3 C39.53 3 20.06 3 0 3 C0 2.01 0 1.02 0 0 Z " fill="#C8C9CA" transform="translate(274,230)"/>
</svg>
